<svg xmlns="http://www.w3.org/2000/svg" xmlns:xlink="http://www.w3.org/1999/xlink" width="2000" zoomAndPan="magnify" viewBox="0 0 1500 1499.999933" height="2000" preserveAspectRatio="xMidYMid meet" version="1.0"><defs><clipPath id="d0538de179"><path d="M 0.394531 0.578125 L 1086 0.578125 L 1086 1079.417969 L 0.394531 1079.417969 Z M 0.394531 0.578125 " clip-rule="nonzero"/></clipPath><clipPath id="27e0401135"><path d="M 47.644531 0.578125 L 1038.355469 0.578125 C 1064.449219 0.578125 1085.605469 21.734375 1085.605469 47.828125 L 1085.605469 1032.167969 C 1085.605469 1058.265625 1064.449219 1079.417969 1038.355469 1079.417969 L 47.644531 1079.417969 C 21.550781 1079.417969 0.394531 1058.265625 0.394531 1032.167969 L 0.394531 47.828125 C 0.394531 21.734375 21.550781 0.578125 47.644531 0.578125 Z M 47.644531 0.578125 " clip-rule="nonzero"/></clipPath><clipPath id="2c49342d0b"><path d="M 0.394531 0.578125 L 1085.640625 0.578125 L 1085.640625 1079.417969 L 0.394531 1079.417969 Z M 0.394531 0.578125 " clip-rule="nonzero"/></clipPath><clipPath id="e42edcd1a8"><path d="M 47.644531 0.578125 L 1038.355469 0.578125 C 1064.449219 0.578125 1085.605469 21.734375 1085.605469 47.828125 L 1085.605469 1032.167969 C 1085.605469 1058.265625 1064.449219 1079.417969 1038.355469 1079.417969 L 47.644531 1079.417969 C 21.550781 1079.417969 0.394531 1058.265625 0.394531 1032.167969 L 0.394531 47.828125 C 0.394531 21.734375 21.550781 0.578125 47.644531 0.578125 Z M 47.644531 0.578125 " clip-rule="nonzero"/></clipPath><clipPath id="ee57a84d60"><rect x="0" width="1086" y="0" height="1080"/></clipPath><clipPath id="4cd3777139"><path d="M 392.167969 312.800781 L 785.285156 312.800781 L 785.285156 767.011719 L 392.167969 767.011719 Z M 392.167969 312.800781 " clip-rule="nonzero"/></clipPath><clipPath id="8634eb3e69"><rect x="0" width="1088" y="0" height="1080"/></clipPath></defs><g transform="matrix(1, 0, 0, 1, 207, 210)"><g clip-path="url(#8634eb3e69)"><g clip-path="url(#d0538de179)"><g clip-path="url(#27e0401135)"><g transform="matrix(1, 0, 0, 1, -0.000000000000028422, 0.000000000000113687)"><g clip-path="url(#ee57a84d60)"><g clip-path="url(#2c49342d0b)"><g clip-path="url(#e42edcd1a8)"><path fill="#f9dc0b" d="M 0.394531 0.578125 L 1087.664062 0.578125 L 1087.664062 1079.417969 L 0.394531 1079.417969 Z M 0.394531 0.578125 " fill-opacity="1" fill-rule="nonzero"/></g></g></g></g></g></g><g clip-path="url(#4cd3777139)"><path fill="#000000" d="M 774.859375 522.179688 L 423.558594 315.703125 C 417.175781 311.945312 409.261719 311.886719 402.757812 315.558594 C 396.292969 319.234375 392.316406 326.070312 392.316406 333.480469 L 392.316406 746.429688 C 392.316406 753.84375 396.292969 760.675781 402.757812 764.351562 C 405.949219 766.167969 409.492188 767.078125 413.035156 767.078125 C 416.679688 767.078125 420.324219 766.128906 423.558594 764.207031 L 774.859375 557.734375 C 781.15625 554.039062 785.050781 547.265625 785.050781 539.957031 C 785.050781 532.648438 781.15625 525.875 774.859375 522.179688 Z M 774.859375 522.179688 " fill-opacity="1" fill-rule="nonzero"/></g></g></g></svg>